<svg width="18" height="20" viewBox="0 0 18 20" fill="none" xmlns="http://www.w3.org/2000/svg">
<g clip-path="url(#clip0)">
<path d="M17.25 13.705V6.29498C17.25 5.63998 16.901 5.03498 16.333 4.70698L9.916 1.00198C9.63728 0.841296 9.32122 0.756714 8.9995 0.756714C8.67778 0.756714 8.36172 0.841296 8.083 1.00198L1.667 4.70798C1.38811 4.86853 1.15649 5.09977 0.995496 5.3784C0.834499 5.65703 0.749821 5.97318 0.75 6.29498V13.704C0.75 14.359 1.099 14.964 1.667 15.292L8.084 18.997C8.36272 19.1577 8.67878 19.2422 9.0005 19.2422C9.32222 19.2422 9.63828 19.1577 9.917 18.997L16.334 15.292C16.901 14.965 17.25 14.36 17.25 13.705V13.705Z" stroke="#FED65C" stroke-width="1.5" stroke-linecap="round" stroke-linejoin="round"/>
</g>
<defs>
<clipPath id="clip0">
<rect width="18" height="20" fill="white"/>
</clipPath>
</defs>
</svg>
