<svg width="20" height="20" viewBox="0 0 20 20" fill="none" xmlns="http://www.w3.org/2000/svg">
<g clip-path="url(#clip0)">
<path d="M6.82702 16.657H4.34602C4.08001 16.657 3.82489 16.5513 3.63679 16.3632C3.44869 16.1751 3.34302 15.92 3.34302 15.654V13.172C3.34302 12.906 3.23702 12.651 3.04902 12.463L1.29402 10.708C1.20083 10.6149 1.1269 10.5044 1.07646 10.3827C1.02602 10.2611 1.00006 10.1307 1.00006 9.99896C1.00006 9.86726 1.02602 9.73685 1.07646 9.6152C1.1269 9.49354 1.20083 9.38302 1.29402 9.28996L3.06702 7.51696C3.15459 7.42957 3.22404 7.32576 3.2714 7.21147C3.31877 7.09718 3.3431 6.97467 3.34302 6.85096V4.34596C3.34302 3.79196 3.79202 3.34296 4.34602 3.34296H6.82802C7.09402 3.34296 7.34902 3.23696 7.53702 3.04896L9.29202 1.29396C9.38508 1.20077 9.4956 1.12684 9.61726 1.0764C9.73891 1.02596 9.86932 1 10.001 1C10.1327 1 10.2631 1.02596 10.3848 1.0764C10.5064 1.12684 10.617 1.20077 10.71 1.29396L12.465 3.04896C12.653 3.23696 12.908 3.34296 13.174 3.34296H15.656C16.21 3.34296 16.659 3.79196 16.659 4.34596V6.82796C16.659 7.09396 16.765 7.34896 16.953 7.53696L18.708 9.29196C18.8012 9.38502 18.8751 9.49554 18.9256 9.6172C18.976 9.73885 19.002 9.86926 19.002 10.001C19.002 10.1327 18.976 10.2631 18.9256 10.3847C18.8751 10.5064 18.8012 10.6169 18.708 10.71L16.953 12.465C16.7649 12.653 16.6591 12.908 16.659 13.174V15.656C16.659 16.21 16.21 16.659 15.656 16.659H13.174C12.908 16.659 12.653 16.765 12.465 16.953L10.71 18.708C10.617 18.8011 10.5064 18.8751 10.3848 18.9255C10.2631 18.976 10.1327 19.0019 10.001 19.0019C9.86932 19.0019 9.73891 18.976 9.61726 18.9255C9.4956 18.8751 9.38508 18.8011 9.29202 18.708L7.53702 16.953C7.44421 16.859 7.33364 16.7845 7.21175 16.7336C7.08986 16.6828 6.95908 16.6568 6.82702 16.657V16.657Z" stroke="#FED65C" stroke-width="1.5" stroke-linecap="round" stroke-linejoin="round"/>
<path d="M13 8.5L9.25 12.25L7 10" stroke="#FED65C" stroke-width="1.5" stroke-linecap="round" stroke-linejoin="round"/>
</g>
<defs>
<clipPath id="clip0">
<rect width="20" height="20" fill="white"/>
</clipPath>
</defs>
</svg>
