<svg width="18" height="20" viewBox="0 0 18 20" fill="none" xmlns="http://www.w3.org/2000/svg">
<g clip-path="url(#clip0)">
<path d="M6.5 18.5V14C6.5 13.3369 6.76339 12.701 7.23223 12.2322C7.70107 11.7633 8.33696 11.5 9 11.5C9.66304 11.5 10.2989 11.7633 10.7678 12.2322C11.2366 12.701 11.5 13.3369 11.5 14V18.5H17V9.91396C16.9999 9.38357 16.7891 8.87494 16.414 8.49996L9.707 1.79296C9.61421 1.70001 9.50401 1.62627 9.38269 1.57596C9.26138 1.52565 9.13133 1.49976 9 1.49976C8.86867 1.49976 8.73862 1.52565 8.61731 1.57596C8.49599 1.62627 8.38579 1.70001 8.293 1.79296L1.586 8.49996C1.2109 8.87494 1.00011 9.38357 1 9.91396V18.5H6.5Z" stroke="#FED65C" stroke-width="1.5" stroke-linecap="round" stroke-linejoin="round"/>
</g>
<defs>
<clipPath id="clip0">
<rect width="18" height="20" fill="white"/>
</clipPath>
</defs>
</svg>
