<svg width="18" height="21" viewBox="0 0 18 21" fill="none" xmlns="http://www.w3.org/2000/svg">
<g clip-path="url(#clip0)">
<path d="M5 3L6.3 1.375C6.39373 1.25793 6.51259 1.16344 6.64778 1.09853C6.78297 1.03362 6.93103 0.999944 7.081 1H10.92C11.07 0.999944 11.218 1.03362 11.3532 1.09853C11.4884 1.16344 11.6073 1.25793 11.701 1.375L13 3V4C13 4.26522 12.8946 4.51957 12.7071 4.70711C12.5196 4.89464 12.2652 5 12 5H6C5.73478 5 5.48043 4.89464 5.29289 4.70711C5.10536 4.51957 5 4.26522 5 4V3Z" stroke="#FED65C" stroke-width="1.5" stroke-linecap="round" stroke-linejoin="round"/>
<path d="M5 3H3C2.46957 3 1.96086 3.21071 1.58579 3.58579C1.21071 3.96086 1 4.46957 1 5V18C1 18.5304 1.21071 19.0391 1.58579 19.4142C1.96086 19.7893 2.46957 20 3 20H15C15.5304 20 16.0391 19.7893 16.4142 19.4142C16.7893 19.0391 17 18.5304 17 18V5C17 4.46957 16.7893 3.96086 16.4142 3.58579C16.0391 3.21071 15.5304 3 15 3H13" stroke="#FED65C" stroke-width="1.5" stroke-linecap="round" stroke-linejoin="round"/>
<path d="M11 11.5L8.5 14L7 12.5" stroke="#FED65C" stroke-width="1.5" stroke-linecap="round" stroke-linejoin="round"/>
</g>
<defs>
<clipPath id="clip0">
<rect width="18" height="21" fill="white"/>
</clipPath>
</defs>
</svg>
