<svg width="32" height="32" viewBox="0 0 32 32" fill="none" xmlns="http://www.w3.org/2000/svg">
<path d="M17.8893 10.908C18.1301 11.149 18.321 11.435 18.4513 11.7497C18.5815 12.0644 18.6485 12.4017 18.6483 12.7423C18.6482 13.0829 18.581 13.4202 18.4505 13.7348C18.3201 14.0494 18.1289 14.3353 17.888 14.576C17.6471 14.8168 17.3611 15.0077 17.0463 15.138C16.7316 15.2682 16.3943 15.3352 16.0537 15.335C15.7131 15.3349 15.3759 15.2677 15.0612 15.1372C14.7466 15.0068 14.4608 14.8156 14.22 14.5747C13.7338 14.0881 13.4607 13.4283 13.461 12.7404C13.4612 12.0525 13.7348 11.3929 14.2213 10.9067C14.7079 10.4205 15.3677 10.1475 16.0556 10.1477C16.7435 10.148 17.4031 10.4215 17.8893 10.908" stroke="#685A43" stroke-width="1.5" stroke-linecap="round" stroke-linejoin="round"/>
<path d="M20.444 8.29592L19.0933 6.05059C18.9617 5.83162 18.7756 5.65047 18.5531 5.52477C18.3307 5.39906 18.0795 5.33308 17.824 5.33325H14.136C13.6093 5.33325 13.1227 5.61325 12.8573 6.06792L11.556 8.29592H9.51866C9.02759 8.29627 8.55673 8.49151 8.20949 8.83875C7.86225 9.18599 7.66702 9.65685 7.66666 10.1479V16.8146C7.66702 17.3057 7.86225 17.7765 8.20949 18.1238C8.55673 18.471 9.02759 18.6662 9.51866 18.6666H22.4813C22.9724 18.6662 23.4433 18.471 23.7905 18.1238C24.1377 17.7765 24.333 17.3057 24.3333 16.8146V10.1479C24.3333 9.12525 23.504 8.29592 22.4827 8.29592H20.444V8.29592Z" stroke="#685A43" stroke-width="1.5" stroke-linecap="round" stroke-linejoin="round"/>
<path d="M14.2227 28L16 26.2226L14.2227 24.4453" stroke="#685A43" stroke-width="1.5" stroke-linecap="round" stroke-linejoin="round"/>
<path d="M27.852 18.6746C28.7893 19.3839 29.3333 20.1839 29.3333 21.0372C29.3333 23.2186 25.8667 25.0812 20.9627 25.8479" stroke="#685A43" stroke-width="1.5" stroke-linecap="round" stroke-linejoin="round"/>
<path d="M4.148 18.6746C3.21066 19.3839 2.66666 20.1839 2.66666 21.0372C2.66666 23.9012 8.636 26.2226 16 26.2226" stroke="#685A43" stroke-width="1.5" stroke-linecap="round" stroke-linejoin="round"/>
</svg>
