<svg width="32" height="32" viewBox="0 0 32 32" fill="none" xmlns="http://www.w3.org/2000/svg">
<path d="M14.6667 21.2H5.20002C4.52814 21.2 3.88378 20.9331 3.40868 20.458C2.93359 19.9829 2.66669 19.3385 2.66669 18.6667V6.53333C2.66669 5.13333 3.80002 4 5.20002 4H25.4667C26.8667 4 28 5.13333 28 6.53333V13.3333" stroke="#685A43" stroke-width="1.5" stroke-linecap="round" stroke-linejoin="round"/>
<path d="M17.572 10.6281C18.1403 11.2272 18.4521 12.0244 18.4412 12.8501C18.4303 13.6757 18.0975 14.4645 17.5136 15.0484C16.9298 15.6322 16.141 15.9651 15.3154 15.976C14.4897 15.9869 13.6924 15.675 13.0933 15.1067C12.5251 14.5076 12.2132 13.7104 12.2241 12.8847C12.235 12.0591 12.5678 11.2703 13.1517 10.6864C13.7356 10.1026 14.5243 9.76972 15.35 9.75882C16.1756 9.74792 16.9729 10.0598 17.572 10.6281" stroke="#685A43" stroke-width="1.5" stroke-linecap="round" stroke-linejoin="round"/>
<path d="M29.3334 22.6666C29.3334 25.6186 26.952 27.9999 24 27.9999C21.048 27.9999 18.6667 25.6186 18.6667 22.6666C18.6667 19.7146 21.048 17.3333 24 17.3333C26.952 17.3333 29.3334 19.7146 29.3334 22.6666Z" stroke="#685A43" stroke-width="1.5" stroke-linecap="round" stroke-linejoin="round"/>
<path d="M8.00002 17.3333H6.66669" stroke="#685A43" stroke-width="1.5" stroke-linecap="round" stroke-linejoin="round"/>
<path d="M24 8H22.6667" stroke="#685A43" stroke-width="1.5" stroke-linecap="round" stroke-linejoin="round"/>
<path d="M20.2307 26.436L27.7707 18.896" stroke="#685A43" stroke-width="1.5" stroke-linecap="round" stroke-linejoin="round"/>
</svg>
