<svg width="32" height="32" viewBox="0 0 32 32" fill="none" xmlns="http://www.w3.org/2000/svg">
<path d="M20 28H23.6187C24.3259 28 25.0042 27.719 25.5043 27.219C26.0044 26.7189 26.2853 26.0406 26.2853 25.3333V5.33333C26.2853 4.97971 26.1449 4.64057 25.8948 4.39052C25.6448 4.14048 25.3056 4 24.952 4H22.476C22.1224 4 21.7832 4.14048 21.5332 4.39052C21.2831 4.64057 21.1427 4.97971 21.1427 5.33333V8.408" stroke="#685A43" stroke-width="1.5" stroke-linecap="round" stroke-linejoin="round"/>
<path d="M11.716 17.4027C10.3588 17.4245 9.06465 17.9789 8.11262 18.9464C7.16058 19.9138 6.62701 21.2167 6.62701 22.574C6.62701 23.9314 7.16058 25.2343 8.11262 26.2017C9.06465 27.1692 10.3588 27.7236 11.716 27.7454C15.9293 27.7454 16.9626 22.572 19.3773 21.1974C18.4902 20.0053 17.3336 19.04 16.0021 18.3805C14.6705 17.721 13.2018 17.3859 11.716 17.4027V17.4027Z" stroke="#685A43" stroke-width="1.5" stroke-linecap="round" stroke-linejoin="round"/>
<path d="M12.34 22.0107C10.9102 22.25 9.54703 22.7885 8.33963 23.5908C7.13223 24.3931 6.10779 25.4413 5.33331 26.6667" stroke="#685A43" stroke-width="1.5" stroke-linecap="round" stroke-linejoin="round"/>
<path d="M4 14.2854L14.2667 5.48539C14.7497 5.07225 15.3644 4.84521 16 4.84521C16.6356 4.84521 17.2503 5.07225 17.7333 5.48539L28 14.2854" stroke="#685A43" stroke-width="1.5" stroke-linecap="round" stroke-linejoin="round"/>
</svg>
