<svg width="32" height="32" viewBox="0 0 32 32" fill="none" xmlns="http://www.w3.org/2000/svg">
<path d="M4.66669 25.3333H5.60002C7.1661 25.334 8.69697 25.7979 10 26.6666C11.3031 27.5353 12.8339 27.9992 14.4 27.9999H17.6C19.1661 27.9992 20.697 27.5353 22 26.6666C23.3031 25.7979 24.8339 25.334 26.4 25.3333H27.3334C27.8638 25.3333 28.3725 25.1225 28.7476 24.7475C29.1226 24.3724 29.3334 23.8637 29.3334 23.3333C29.3334 22.8028 29.1226 22.2941 28.7476 21.919C28.3725 21.544 27.8638 21.3333 27.3334 21.3333H4.66669C4.13625 21.3333 3.62755 21.544 3.25247 21.919C2.8774 22.2941 2.66669 22.8028 2.66669 23.3333C2.66669 23.8637 2.8774 24.3724 3.25247 24.7475C3.62755 25.1225 4.13625 25.3333 4.66669 25.3333V25.3333Z" stroke="#685A43" stroke-width="1.5" stroke-linecap="round" stroke-linejoin="round"/>
<path d="M9.33331 7.73325V10.6666C9.33331 11.197 9.54403 11.7057 9.9191 12.0808C10.2942 12.4559 10.8029 12.6666 11.3333 12.6666C11.8637 12.6666 12.3725 12.4559 12.7475 12.0808C13.1226 11.7057 13.3333 11.197 13.3333 10.6666V7.99992C13.3333 7.29267 13.6143 6.6144 14.1144 6.1143C14.6145 5.6142 15.2927 5.33325 16 5.33325C16.7072 5.33325 17.3855 5.6142 17.8856 6.1143C18.3857 6.6144 18.6666 7.29267 18.6666 7.99992V10.6666C18.6666 11.197 18.8774 11.7057 19.2524 12.0808C19.6275 12.4559 20.1362 12.6666 20.6666 12.6666C21.1971 12.6666 21.7058 12.4559 22.0809 12.0808C22.4559 11.7057 22.6666 11.197 22.6666 10.6666V7.73325" stroke="#685A43" stroke-width="1.5" stroke-linecap="round" stroke-linejoin="round"/>
<path d="M18.3093 6.66675H18.6667C20.7884 6.66675 22.8232 7.5096 24.3235 9.00989C25.8238 10.5102 26.6667 12.545 26.6667 14.6667V21.3334" stroke="#685A43" stroke-width="1.5" stroke-linecap="round" stroke-linejoin="round"/>
<path d="M13.6906 6.66675H13.3333C11.2116 6.66675 9.17675 7.5096 7.67646 9.00989C6.17617 10.5102 5.33331 12.545 5.33331 14.6667V21.3334" stroke="#685A43" stroke-width="1.5" stroke-linecap="round" stroke-linejoin="round"/>
</svg>
