<svg width="32" height="32" viewBox="0 0 32 32" fill="none" xmlns="http://www.w3.org/2000/svg">
<path d="M13.3973 18.492C11.9218 17.0305 10.7293 15.3086 9.87999 13.4134C9.80187 13.2286 9.7812 13.0246 9.82068 12.8279C9.86016 12.6312 9.95796 12.451 10.1013 12.3107L11.1933 11.2187C12.088 10.324 12.088 9.05871 11.3067 8.27738L9.74133 6.71338C9.24125 6.21346 8.5631 5.93262 7.85599 5.93262C7.14889 5.93262 6.47073 6.21346 5.97066 6.71338L5.10133 7.58138C4.11333 8.56938 3.70133 9.99471 3.96799 11.408C4.62666 14.892 6.65066 18.7067 9.91599 21.972C13.1813 25.2374 16.996 27.2614 20.48 27.92C21.8933 28.1867 23.3187 27.7747 24.3067 26.7867L25.1747 25.9187C25.6746 25.4186 25.9554 24.7405 25.9554 24.0334C25.9554 23.3263 25.6746 22.6481 25.1747 22.148L23.6107 20.584C23.2356 20.2091 22.727 19.9985 22.1967 19.9985C21.6663 19.9985 21.1577 20.2091 20.7827 20.584L19.5787 21.7894C19.4384 21.9328 19.2581 22.0305 19.0614 22.07C18.8648 22.1095 18.6608 22.0888 18.476 22.0107C16.5813 21.1599 14.8596 19.9671 13.3973 18.492V18.492Z" stroke="#685A43" stroke-width="1.5" stroke-linecap="round" stroke-linejoin="round"/>
<path d="M17.2267 6.89344V3.77344" stroke="#685A43" stroke-width="1.5" stroke-linecap="round" stroke-linejoin="round"/>
<path d="M22.7867 9.0934L24.9867 6.90674" stroke="#685A43" stroke-width="1.5" stroke-linecap="round" stroke-linejoin="round"/>
<path d="M25 14.6667H28.1067" stroke="#685A43" stroke-width="1.5" stroke-linecap="round" stroke-linejoin="round"/>
</svg>
