<svg width="32" height="32" viewBox="0 0 32 32" fill="none" xmlns="http://www.w3.org/2000/svg">
<path d="M17.6907 11.7733C18.0002 12.0829 18.2458 12.4504 18.4133 12.8549C18.5809 13.2593 18.6671 13.6929 18.6671 14.1306C18.6671 14.5684 18.5809 15.002 18.4133 15.4064C18.2458 15.8109 18.0002 16.1784 17.6907 16.488C17.3811 16.7976 17.0136 17.0431 16.6091 17.2107C16.2046 17.3782 15.7711 17.4644 15.3333 17.4644C14.4492 17.4644 13.6012 17.1132 12.976 16.488C12.3508 15.8628 11.9996 15.0148 11.9996 14.1306C11.9996 13.2465 12.3508 12.3985 12.976 11.7733C13.6012 11.1481 14.4492 10.7969 15.3333 10.7969C16.2175 10.7969 17.0655 11.1481 17.6907 11.7733" stroke="#685A43" stroke-width="1.5" stroke-linecap="round" stroke-linejoin="round"/>
<path d="M28 18.6425V8.13053C28 7.42329 27.719 6.74501 27.2189 6.24492C26.7189 5.74482 26.0406 5.46387 25.3333 5.46387H5.33333C4.62609 5.46387 3.94781 5.74482 3.44771 6.24492C2.94762 6.74501 2.66666 7.42329 2.66666 8.13053V20.1305C2.66666 20.8378 2.94762 21.5161 3.44771 22.0162C3.94781 22.5162 4.62609 22.7972 5.33333 22.7972H16.348" stroke="#685A43" stroke-width="1.5" stroke-linecap="round" stroke-linejoin="round"/>
<path d="M6.66666 18.8H9.33333" stroke="#685A43" stroke-width="1.5" stroke-linecap="round" stroke-linejoin="round"/>
<path d="M21.3333 9.4668H24" stroke="#685A43" stroke-width="1.5" stroke-linecap="round" stroke-linejoin="round"/>
<path d="M20.4987 19.9453C19.8904 19.9545 19.2899 20.0834 18.7314 20.3247C18.1729 20.566 17.6675 20.9149 17.2439 21.3515C16.3883 22.2333 15.9181 23.4188 15.9367 24.6473C15.9459 25.2556 16.0748 25.8561 16.316 26.4146C16.5573 26.973 16.9062 27.4785 17.3429 27.9021C18.2246 28.7577 19.4102 29.2279 20.6387 29.2093C21.5214 29.2081 22.3854 28.9544 23.1287 28.4781C23.872 28.0018 24.4634 27.3228 24.8333 26.5213" stroke="#685A43" stroke-width="1.5" stroke-linecap="round" stroke-linejoin="round"/>
<path d="M24.6947 26.5359C24.0788 26.5463 23.467 26.4339 22.8951 26.2054C22.3231 25.9768 21.8023 25.6367 21.3632 25.2048C20.924 24.7729 20.5752 24.2579 20.3372 23.6898C20.0991 23.1217 19.9766 22.5119 19.9767 21.8959C19.9768 21.28 20.0995 20.6702 20.3377 20.1022C20.5759 19.5341 20.9248 19.0192 21.3641 18.5875C21.8034 18.1557 22.3242 17.8157 22.8963 17.5873C23.4683 17.3589 24.0801 17.2467 24.696 17.2573C25.9128 17.2781 27.0727 17.7761 27.9258 18.644C28.7789 19.5119 29.2569 20.6803 29.2567 21.8973C29.2565 23.1142 28.7782 24.2824 27.9249 25.1501C27.0715 26.0178 25.9115 26.5155 24.6947 26.5359" stroke="#685A43" stroke-width="1.5" stroke-linecap="round" stroke-linejoin="round"/>
</svg>
