<svg width="30" height="30" viewBox="0 0 30 30" fill="none" xmlns="http://www.w3.org/2000/svg">
<rect width="30" height="30" rx="15" fill="#E0E0E0"/>
<path d="M14.142 15.8581C13.312 15.036 12.6412 14.0675 12.1635 13.0014C12.1195 12.8975 12.1079 12.7827 12.1301 12.6721C12.1523 12.5614 12.2073 12.4601 12.288 12.3811L12.9022 11.7676C13.4055 11.2644 13.4055 10.5526 12.966 10.1131L12.0855 9.23264C11.8042 8.95143 11.4227 8.79346 11.025 8.79346C10.6272 8.79346 10.2458 8.95143 9.96449 9.23264L9.47549 9.72164C8.91974 10.2774 8.68799 11.0791 8.83799 11.8741C9.20849 13.8339 10.347 15.9796 12.1837 17.8164C14.0205 19.6531 16.1662 20.7916 18.126 21.1621C18.921 21.3121 19.7227 21.0804 20.2785 20.5246L20.7667 20.0364C21.0479 19.7551 21.2059 19.3736 21.2059 18.9759C21.2059 18.5781 21.0479 18.1967 20.7667 17.9154L19.887 17.0356C19.676 16.8247 19.3899 16.7063 19.0916 16.7063C18.7933 16.7063 18.5072 16.8247 18.2962 17.0356L17.619 17.7136C17.5401 17.7943 17.4387 17.8493 17.3281 17.8715C17.2174 17.8937 17.1027 17.8821 16.9987 17.8381C15.9328 17.3595 14.9643 16.6883 14.142 15.8581V15.8581Z" stroke="#828282" stroke-width="1.5" stroke-linecap="round" stroke-linejoin="round"/>
</svg>
