<svg width="30" height="30" viewBox="0 0 30 30" fill="none" xmlns="http://www.w3.org/2000/svg">
<rect width="30" height="30" rx="15" fill="#E0E0E0"/>
<path d="M16.8563 8.39388C17.1 8.63765 17.2934 8.92704 17.4253 9.24554C17.5572 9.56403 17.6251 9.9054 17.6251 10.2501C17.6251 10.5949 17.5572 10.9362 17.4253 11.2547C17.2934 11.5732 17.1 11.8626 16.8563 12.1064C16.6125 12.3501 16.3231 12.5435 16.0046 12.6754C15.6861 12.8074 15.3447 12.8753 15 12.8753C14.6553 12.8753 14.3139 12.8074 13.9954 12.6754C13.6769 12.5435 13.3875 12.3501 13.1438 12.1064C12.6515 11.6141 12.3749 10.9464 12.3749 10.2501C12.3749 9.5539 12.6515 8.88619 13.1438 8.39388C13.6361 7.90158 14.3038 7.625 15 7.625C15.6962 7.625 16.364 7.90158 16.8563 8.39388" stroke="#828282" stroke-width="1.5" stroke-linecap="round" stroke-linejoin="round"/>
<path d="M9 18.8751V19.6251C9 19.824 9.07902 20.0148 9.21967 20.1554C9.36032 20.2961 9.55109 20.3751 9.75 20.3751H20.25C20.4489 20.3751 20.6397 20.2961 20.7803 20.1554C20.921 20.0148 21 19.824 21 19.6251V18.8751C21 16.6056 18.036 15.1311 15 15.1311C11.964 15.1311 9 16.6056 9 18.8751Z" stroke="#828282" stroke-width="1.5" stroke-linecap="round" stroke-linejoin="round"/>
</svg>
