<svg width="165" height="24" viewBox="0 0 165 24" fill="none" xmlns="http://www.w3.org/2000/svg">
<path d="M10.0625 18.3633C7.19531 18.3633 4.80469 17.5977 2.89062 16.0664C0.96875 14.5273 0.0078125 12.4766 0.0078125 9.91406C0.0078125 7.92188 0.589844 6.22266 1.75391 4.81641C2.91797 3.41016 4.49219 2.36719 6.47656 1.6875C7.67188 1.29688 8.79297 1.10156 9.83984 1.10156C11.8633 1.10156 13.6484 1.42969 15.1953 2.08594V5.83594H15.1016C13.7812 3.32031 12 2.0625 9.75781 2.0625C8.04688 2.0625 6.63281 2.72656 5.51562 4.05469C4.40625 5.375 3.85156 7.25 3.85156 9.67969C3.85156 12.0938 4.43359 13.9883 5.59766 15.3633C6.76953 16.7227 8.28906 17.4023 10.1562 17.4023C11.4453 17.4023 12.5234 17.0508 13.3906 16.3477C14.2578 15.6367 15.0039 14.6445 15.6289 13.3711H15.7578L15.418 17.332C14.7773 17.6758 13.9609 17.9297 12.9688 18.0938C11.9766 18.2578 11.0078 18.3477 10.0625 18.3633Z" fill="white"/>
<path d="M26.3281 17.9062V18H19.8945V17.9062C20.5117 17.6406 20.9219 17.2852 21.125 16.8398C21.3281 16.3945 21.4297 15.6914 21.4297 14.7305V6.66797H21.1719C20.3594 6.66797 19.7344 6.79688 19.2969 7.05469C18.8359 7.32812 18.1406 7.95312 17.2109 8.92969H17.082L17.3281 5.76562H28.8945L29.1289 8.92969H29.0117C28.0742 7.94531 27.3828 7.32031 26.9375 7.05469C26.5 6.79688 25.8711 6.66797 25.0508 6.66797H24.793V14.7305C24.793 15.6992 24.8906 16.4023 25.0859 16.8398C25.2891 17.2773 25.7031 17.6328 26.3281 17.9062Z" fill="white"/>
<path d="M36.9219 17.6133C38.0312 17.6133 38.9805 17.125 39.7695 16.1484C40.543 15.1797 40.9297 13.7969 40.9297 12C40.9297 10.6016 40.5742 9.46094 39.8633 8.57812C39.1523 7.6875 38.293 7.24219 37.2852 7.24219C36.6055 7.25781 35.9492 7.47656 35.3164 7.89844V17.2031C35.8398 17.4766 36.375 17.6133 36.9219 17.6133ZM37.168 23.4258V23.5195H30.3242V23.4258C30.9492 23.1523 31.3633 22.7969 31.5664 22.3594C31.7695 21.9062 31.8672 21.207 31.8594 20.2617V9.91406C31.8594 8.85156 31.75 8.11719 31.5312 7.71094C31.3125 7.30469 30.8242 6.94922 30.0664 6.64453V6.55078C31.7305 6.40234 33.4492 6.04297 35.2227 5.47266H35.3164V7.53516C36.6445 6.16016 38.0312 5.47266 39.4766 5.47266C40.2578 5.47266 40.9648 5.63281 41.5977 5.95312C42.2305 6.27344 42.7461 6.70312 43.1445 7.24219C43.543 7.78125 43.8477 8.39453 44.0586 9.08203C44.2695 9.76172 44.3711 10.4766 44.3633 11.2266C44.3633 12.5156 44.0469 13.6836 43.4141 14.7305C42.7891 15.7695 41.9062 16.5977 40.7656 17.2148C39.4688 17.9336 38.1484 18.293 36.8047 18.293C36.1953 18.293 35.6992 18.2578 35.3164 18.1875V20.2617C35.3164 20.6289 35.3281 20.9336 35.3516 21.1758C35.375 21.418 35.4219 21.6641 35.4922 21.9141C35.5625 22.1641 35.6641 22.3711 35.7969 22.5352C35.9297 22.707 36.1094 22.8672 36.3359 23.0156C36.5625 23.1719 36.8398 23.3086 37.168 23.4258Z" fill="white"/>
<path d="M52.4727 17.5664C52.9648 17.5664 53.3945 17.4258 53.7617 17.1445C54.1367 16.8555 54.4258 16.5078 54.6289 16.1016C54.832 15.6875 54.9961 15.2031 55.1211 14.6484C55.2461 14.0938 55.3242 13.5977 55.3555 13.1602C55.3945 12.7148 55.4141 12.2695 55.4141 11.8242C55.4141 11.4023 55.3906 10.9727 55.3438 10.5352C55.3047 10.0898 55.2188 9.59766 55.0859 9.05859C54.9531 8.51953 54.7852 8.04688 54.582 7.64062C54.3789 7.22656 54.0938 6.88281 53.7266 6.60938C53.3594 6.32812 52.9375 6.1875 52.4609 6.1875C51.5156 6.1875 50.793 6.71875 50.293 7.78125C49.7852 8.86719 49.5352 10.2344 49.543 11.8828C49.543 14.0781 49.9453 15.6836 50.75 16.6992C51.2109 17.2773 51.7852 17.5664 52.4727 17.5664ZM47.832 16.4297C46.5352 15.2031 45.8867 13.6719 45.8867 11.8359C45.8867 10.0078 46.543 8.49219 47.8555 7.28906C49.168 6.09375 50.7109 5.48828 52.4844 5.47266C54.2578 5.48828 55.7969 6.09375 57.1016 7.28906C58.4141 8.49219 59.0703 10.0078 59.0703 11.8359C59.0703 13.6641 58.418 15.1953 57.1133 16.4297C55.8086 17.6719 54.2617 18.293 52.4727 18.293C50.6836 18.293 49.1367 17.6719 47.832 16.4297Z" fill="white"/>
<path d="M75.3008 17.9062V18H68.8672V17.9062C69.4922 17.6328 69.9062 17.2773 70.1094 16.8398C70.3125 16.3867 70.4102 15.6836 70.4023 14.7305V9.59766L65.3633 15.457C65.4023 16.1211 65.5234 16.6328 65.7266 16.9922C65.9375 17.3438 66.3281 17.6484 66.8984 17.9062V18H60.4648V17.9062C61.0898 17.6328 61.5039 17.2773 61.707 16.8398C61.9102 16.3867 62.0078 15.6836 62 14.7305V9.02344C62 8.04688 61.9023 7.34766 61.707 6.92578C61.5039 6.48828 61.0898 6.13281 60.4648 5.85938V5.76562H66.8984V5.85938C66.2734 6.13281 65.8594 6.48828 65.6562 6.92578C65.4531 7.37891 65.3555 8.07812 65.3633 9.02344V14.1094L70.3789 8.26172C70.332 7.62891 70.2031 7.12891 69.9922 6.76172C69.7812 6.39453 69.4062 6.09375 68.8672 5.85938V5.76562H75.3008V5.85938C74.6836 6.125 74.2734 6.48047 74.0703 6.92578C73.8672 7.37109 73.7656 8.07031 73.7656 9.02344V14.7305C73.7656 15.6836 73.8672 16.3828 74.0703 16.8281C74.2734 17.2656 74.6836 17.625 75.3008 17.9062ZM69.2539 1.82812C69.2539 1.0625 69.668 0.675781 70.4961 0.667969C70.8398 0.667969 71.1172 0.800781 71.3281 1.06641C71.5469 1.33203 71.6562 1.64062 71.6562 1.99219C71.6562 2.66406 71.3242 3.25781 70.6602 3.77344C69.9961 4.28906 69.0703 4.54688 67.8828 4.54688C66.6953 4.54688 65.7734 4.28906 65.1172 3.77344C64.4688 3.25781 64.1367 2.66406 64.1211 1.99219C64.1211 1.63281 64.2227 1.32422 64.4258 1.06641C64.6367 0.800781 64.918 0.667969 65.2695 0.667969C66.0977 0.667969 66.5117 1.05469 66.5117 1.82812C66.5117 2.51562 66.1367 2.96875 65.3867 3.1875C65.9648 3.67969 66.793 3.92578 67.8711 3.92578C68.957 3.92578 69.7852 3.67969 70.3555 3.1875C69.6211 2.96875 69.2539 2.51562 69.2539 1.82812Z" fill="white"/>
<path d="M83.0938 17.6133C84.2031 17.6133 85.1523 17.125 85.9414 16.1484C86.7148 15.1797 87.1016 13.7969 87.1016 12C87.1016 10.6016 86.7461 9.46094 86.0352 8.57812C85.3242 7.6875 84.4648 7.24219 83.457 7.24219C82.7773 7.25781 82.1211 7.47656 81.4883 7.89844V17.2031C82.0117 17.4766 82.5469 17.6133 83.0938 17.6133ZM83.3398 23.4258V23.5195H76.4961V23.4258C77.1211 23.1523 77.5352 22.7969 77.7383 22.3594C77.9414 21.9062 78.0391 21.207 78.0312 20.2617V9.91406C78.0312 8.85156 77.9219 8.11719 77.7031 7.71094C77.4844 7.30469 76.9961 6.94922 76.2383 6.64453V6.55078C77.9023 6.40234 79.6211 6.04297 81.3945 5.47266H81.4883V7.53516C82.8164 6.16016 84.2031 5.47266 85.6484 5.47266C86.4297 5.47266 87.1367 5.63281 87.7695 5.95312C88.4023 6.27344 88.918 6.70312 89.3164 7.24219C89.7148 7.78125 90.0195 8.39453 90.2305 9.08203C90.4414 9.76172 90.543 10.4766 90.5352 11.2266C90.5352 12.5156 90.2188 13.6836 89.5859 14.7305C88.9609 15.7695 88.0781 16.5977 86.9375 17.2148C85.6406 17.9336 84.3203 18.293 82.9766 18.293C82.3672 18.293 81.8711 18.2578 81.4883 18.1875V20.2617C81.4883 20.6289 81.5 20.9336 81.5234 21.1758C81.5469 21.418 81.5938 21.6641 81.6641 21.9141C81.7344 22.1641 81.8359 22.3711 81.9688 22.5352C82.1016 22.707 82.2812 22.8672 82.5078 23.0156C82.7344 23.1719 83.0117 23.3086 83.3398 23.4258Z" fill="white"/>
<path d="M97.8125 6.1875C97.3672 6.1875 96.9844 6.35938 96.6641 6.70312C96.3438 7.03906 96.1055 7.46875 95.9492 7.99219C95.8008 8.51562 95.6953 9.00781 95.6328 9.46875C95.5703 9.92969 95.5391 10.3672 95.5391 10.7812L99.793 10.3945C99.793 10.1445 99.7891 9.92578 99.7812 9.73828C99.7812 9.54297 99.7656 9.29297 99.7344 8.98828C99.7109 8.67578 99.6719 8.40625 99.6172 8.17969C99.5703 7.94531 99.4961 7.69531 99.3945 7.42969C99.3008 7.16406 99.1836 6.94922 99.043 6.78516C98.9102 6.61328 98.7383 6.47266 98.5273 6.36328C98.3164 6.24609 98.0781 6.1875 97.8125 6.1875ZM97.8477 18.293C96.668 18.2852 95.6328 18.0117 94.7422 17.4727C93.8594 16.9258 93.1875 16.1914 92.7266 15.2695C92.2734 14.3398 92.0469 13.2891 92.0469 12.1172C92.0469 10.2969 92.6289 8.73438 93.793 7.42969C94.957 6.14062 96.3086 5.48828 97.8477 5.47266C99.4258 5.47266 100.641 5.89062 101.492 6.72656C102.344 7.5625 102.77 8.76953 102.77 10.3477V11.332H95.5391C95.5391 12.8945 95.9297 14.0781 96.7109 14.8828C97.5 15.6953 98.4766 16.1016 99.6406 16.1016C100.805 16.1016 101.863 15.75 102.816 15.0469L102.934 15.1406C102.434 15.9297 101.746 16.6484 100.871 17.2969C99.957 17.9688 98.9492 18.3008 97.8477 18.293Z" fill="white"/>
<path d="M120.816 17.9062V18H115.133V17.9062C115.586 17.6953 115.902 17.4492 116.082 17.168C116.262 16.8867 116.344 16.4453 116.328 15.8438C116.328 15.7344 116.312 15.3633 116.281 14.7305L115.918 8.20312L112.297 18H110.516L107.059 8.15625L106.66 14.6133C106.629 15.1055 106.613 15.5781 106.613 16.0312C106.605 16.4219 106.695 16.7734 106.883 17.0859C107.07 17.3906 107.426 17.6641 107.949 17.9062V18H103.461V17.9062C104.039 17.6953 104.422 17.3594 104.609 16.8984C104.797 16.4453 104.926 15.6836 104.996 14.6133L105.406 9.11719C105.453 8.16406 105.477 7.57031 105.477 7.33594C105.477 7.10156 105.395 6.875 105.23 6.65625C105.066 6.44531 104.703 6.17969 104.141 5.85938V5.76562H109.109L112.367 14.6367L115.555 5.76562H120.242V5.85938C119.727 6.07812 119.375 6.3125 119.188 6.5625C119 6.8125 118.91 7.16406 118.918 7.61719C118.918 8.07031 118.941 8.57031 118.988 9.11719L119.352 14.6367C119.43 15.7305 119.559 16.4844 119.738 16.8984C119.91 17.2969 120.27 17.6328 120.816 17.9062Z" fill="white"/>
<path d="M128.48 17.5664C128.973 17.5664 129.402 17.4258 129.77 17.1445C130.145 16.8555 130.434 16.5078 130.637 16.1016C130.84 15.6875 131.004 15.2031 131.129 14.6484C131.254 14.0938 131.332 13.5977 131.363 13.1602C131.402 12.7148 131.422 12.2695 131.422 11.8242C131.422 11.4023 131.398 10.9727 131.352 10.5352C131.312 10.0898 131.227 9.59766 131.094 9.05859C130.961 8.51953 130.793 8.04688 130.59 7.64062C130.387 7.22656 130.102 6.88281 129.734 6.60938C129.367 6.32812 128.945 6.1875 128.469 6.1875C127.523 6.1875 126.801 6.71875 126.301 7.78125C125.793 8.86719 125.543 10.2344 125.551 11.8828C125.551 14.0781 125.953 15.6836 126.758 16.6992C127.219 17.2773 127.793 17.5664 128.48 17.5664ZM123.84 16.4297C122.543 15.2031 121.895 13.6719 121.895 11.8359C121.895 10.0078 122.551 8.49219 123.863 7.28906C125.176 6.09375 126.719 5.48828 128.492 5.47266C130.266 5.48828 131.805 6.09375 133.109 7.28906C134.422 8.49219 135.078 10.0078 135.078 11.8359C135.078 13.6641 134.426 15.1953 133.121 16.4297C131.816 17.6719 130.27 18.293 128.48 18.293C126.691 18.293 125.145 17.6719 123.84 16.4297Z" fill="white"/>
<path d="M151.074 17.9062V18H144.641V17.9062C145.266 17.6328 145.68 17.2773 145.883 16.8398C146.086 16.3867 146.184 15.6836 146.176 14.7305V12.1641H141.371V14.7305C141.371 15.6836 141.473 16.3828 141.676 16.8281C141.879 17.2656 142.289 17.625 142.906 17.9062V18H136.473V17.9062C137.098 17.6328 137.512 17.2773 137.715 16.8398C137.918 16.3867 138.016 15.6836 138.008 14.7305V9.02344C138.008 8.04688 137.91 7.34766 137.715 6.92578C137.512 6.48828 137.098 6.13281 136.473 5.85938V5.76562H142.906V5.85938C142.281 6.13281 141.867 6.48828 141.664 6.92578C141.461 7.37891 141.363 8.07812 141.371 9.02344V11.2852H146.176V9.02344C146.176 8.07031 146.074 7.37109 145.871 6.92578C145.668 6.48047 145.258 6.125 144.641 5.85938V5.76562H151.074V5.85938C150.449 6.13281 150.035 6.48828 149.832 6.92578C149.629 7.37109 149.527 8.07031 149.527 9.02344V14.7305C149.527 15.6836 149.629 16.3828 149.832 16.8281C150.035 17.2656 150.449 17.625 151.074 17.9062Z" fill="white"/>
<path d="M161.656 17.9062V18H155.223V17.9062C155.84 17.6406 156.25 17.2852 156.453 16.8398C156.656 16.3945 156.758 15.6914 156.758 14.7305V6.66797H156.5C155.688 6.66797 155.062 6.79688 154.625 7.05469C154.164 7.32812 153.469 7.95312 152.539 8.92969H152.41L152.656 5.76562H164.223L164.457 8.92969H164.34C163.402 7.94531 162.711 7.32031 162.266 7.05469C161.828 6.79688 161.199 6.66797 160.379 6.66797H160.121V14.7305C160.121 15.6992 160.219 16.4023 160.414 16.8398C160.617 17.2773 161.031 17.6328 161.656 17.9062Z" fill="white"/>
</svg>
