<svg width="45" height="45" viewBox="0 0 45 45" fill="none" xmlns="http://www.w3.org/2000/svg">
<path d="M31.5101 27.2102L28.9982 24.6982C28.101 23.8011 26.5759 24.16 26.2171 25.3262C25.9479 26.1337 25.0508 26.5822 24.2434 26.4028C22.4491 25.9542 20.0269 23.6217 19.5783 21.7377C19.3092 20.9303 19.8475 20.0331 20.6549 19.764C21.8211 19.4052 22.18 17.8801 21.2829 16.9829L18.7709 14.471C18.0532 13.843 16.9767 13.843 16.3487 14.471L14.6441 16.1755C12.9396 17.9698 14.8236 22.7246 19.0401 26.941C23.2565 31.1575 28.0113 33.1313 29.8056 31.337L31.5101 29.6324C32.1381 28.9147 32.1381 27.8382 31.5101 27.2102Z" fill="#FED65C"/>
</svg>
