<svg width="48" height="48" viewBox="0 0 48 48" fill="none" xmlns="http://www.w3.org/2000/svg">
<path d="M30.383 20H31.444C32.304 20 33 20.696 33 21.556V31.445C33 32.304 32.304 33 31.444 33H20.556C19.696 33 19 32.304 19 31.444V30" stroke="#FED65C" stroke-width="1.5" stroke-linecap="round" stroke-linejoin="round"/>
<path d="M16.001 30H27.313C27.982 30 28.606 29.666 28.977 29.109L29.711 28.007C30.1491 27.3499 30.383 26.5778 30.383 25.788V18C30.383 17.4696 30.1723 16.9609 29.7972 16.5858C29.4221 16.2107 28.9134 16 28.383 16H18.383C17.8526 16 17.3439 16.2107 16.9688 16.5858C16.5937 16.9609 16.383 17.4696 16.383 18V25.056C16.383 25.677 16.238 26.289 15.961 26.845L15.107 28.553C15.0308 28.7054 14.9949 28.8748 15.0025 29.045C15.0102 29.2152 15.0612 29.3806 15.1508 29.5256C15.2404 29.6706 15.3655 29.7902 15.5143 29.8733C15.6631 29.9563 15.8306 29.9999 16.001 30Z" stroke="#FED65C" stroke-width="1.5" stroke-linecap="round" stroke-linejoin="round"/>
<path d="M20.38 15V17" stroke="#FED65C" stroke-width="1.5" stroke-linecap="round" stroke-linejoin="round"/>
<path d="M26.38 15V17" stroke="#FED65C" stroke-width="1.5" stroke-linecap="round" stroke-linejoin="round"/>
<path d="M20.19 21H26.19" stroke="#FED65C" stroke-width="1.5" stroke-linecap="round" stroke-linejoin="round"/>
<path d="M20.19 25H26.19" stroke="#FED65C" stroke-width="1.5" stroke-linecap="round" stroke-linejoin="round"/>
</svg>
