<svg width="20" height="20" viewBox="0 0 20 20" fill="none" xmlns="http://www.w3.org/2000/svg">
<path d="M9.999 6C9.9496 6.0002 9.90136 6.01503 9.86038 6.04262C9.8194 6.07021 9.78751 6.10932 9.76874 6.15502C9.74998 6.20072 9.74517 6.25096 9.75493 6.29938C9.76469 6.34781 9.78857 6.39227 9.82358 6.42713C9.85858 6.46199 9.90313 6.4857 9.95159 6.49527C10.0001 6.50483 10.0503 6.49983 10.0959 6.48088C10.1415 6.46192 10.1805 6.42988 10.2079 6.38879C10.2354 6.3477 10.25 6.2994 10.25 6.25C10.25 6.21709 10.2435 6.1845 10.2309 6.1541C10.2182 6.1237 10.1997 6.0961 10.1764 6.07287C10.1531 6.04964 10.1254 6.03125 10.095 6.01874C10.0645 6.00624 10.0319 5.99987 9.999 6Z" fill="#FED65C" stroke="#FED65C" stroke-linecap="round" stroke-linejoin="round"/>
<path d="M10 19C7.61305 19 5.32387 18.0518 3.63604 16.364C1.94821 14.6761 1 12.3869 1 10C1 7.61305 1.94821 5.32387 3.63604 3.63604C5.32387 1.94821 7.61305 1 10 1C12.3869 1 14.6761 1.94821 16.364 3.63604C18.0518 5.32387 19 7.61305 19 10C19 12.3869 18.0518 14.6761 16.364 16.364C14.6761 18.0518 12.3869 19 10 19V19Z" stroke="#FED65C" stroke-width="1.5" stroke-linecap="round" stroke-linejoin="round"/>
<path d="M10 10V15" stroke="#FED65C" stroke-width="1.5" stroke-linecap="round" stroke-linejoin="round"/>
</svg>
